<svg width="332" height="332" viewBox="0 0 332 332" fill="none" xmlns="http://www.w3.org/2000/svg">
<g clip-path="url(#clip0_158_408)">
<path d="M166 306C243.32 306 306 243.32 306 166C306 88.6801 243.32 26 166 26C88.6801 26 26 88.6801 26 166C26 243.32 88.6801 306 166 306Z" fill="#FF8E3C"/>
<path d="M311.5 163.5C307.079 186.598 301.322 204.76 297.859 215.424L305.5 211C292.682 230.559 293.159 229.898 297.859 215.424L267.5 233C242 236 190 242 186 242C182 242 138 228 116.5 221L106.763 196.214C98.0788 194.125 96.3553 191.821 105.5 193L106.763 196.214C123.767 200.304 167.459 203.57 208.5 178.25C270.5 140 321.923 109.052 311.5 163.5Z" fill="#FFD8BD"/>
<path d="M304.5 205C124.5 261 152.046 130.843 23 186L34.5 228L59 263L92.5 290L137.5 307.5L188 312L252.5 283.5L290 243.5L304.5 205Z" fill="#FFF6F0"/>
<path d="M166 310.5C245.805 310.5 310.5 245.805 310.5 166C310.5 86.1949 245.805 21.5 166 21.5C86.1949 21.5 21.5 86.1949 21.5 166C21.5 245.805 86.1949 310.5 166 310.5Z" stroke="white" stroke-width="11"/>
<path d="M109.88 275V241.4H121.88C123.704 241.4 125.352 241.856 126.824 242.768C128.312 243.68 129.488 244.904 130.352 246.44C131.216 247.976 131.648 249.664 131.648 251.504C131.648 253.392 131.2 255.104 130.304 256.64C129.424 258.16 128.24 259.376 126.752 260.288C125.264 261.184 123.64 261.632 121.88 261.632H115.736V275H109.88ZM115.736 255.776H121.256C122.088 255.776 122.848 255.568 123.536 255.152C124.224 254.736 124.768 254.176 125.168 253.472C125.584 252.768 125.792 251.984 125.792 251.12C125.792 250.24 125.584 249.448 125.168 248.744C124.768 248.04 124.224 247.48 123.536 247.064C122.848 246.648 122.088 246.44 121.256 246.44H115.736V255.776ZM136.036 275V241.4H141.892V269.144H155.884V275H136.036ZM171.315 241.4H178.059L190.275 275H184.059L181.899 269.048H167.499L165.339 275H159.123L171.315 241.4ZM169.635 263.192H179.739L174.675 249.344L169.635 263.192ZM191.971 275L204.259 258.104L192.115 241.4H199.339L207.883 253.16L216.451 241.4H223.675L211.531 258.104L223.819 275H216.547L207.883 263.096L199.243 275H191.971Z" fill="#FF8E3C"/>
</g>
<defs>
<clipPath id="clip0_158_408">
<rect width="300" height="300" fill="white" transform="translate(16 16)"/>
</clipPath>
</defs>
</svg>
